<svg width="926" height="739" viewBox="0 0 926 739" fill="none" xmlns="http://www.w3.org/2000/svg">
<g clip-path="url(#clip0)">
<path d="M877.723 336.934C877.774 336.87 877.825 336.806 877.876 336.755C878.132 335.193 878.388 333.63 878.657 332.055C879.08 329.545 879.784 327.086 880.348 324.589C880.834 322.438 881.347 320.299 881.961 318.199C881.705 317.111 881.295 316.073 880.693 315.126C877.198 309.709 870.628 307.955 864.93 310.99C864.251 311.348 863.572 311.681 862.893 312.027C862.881 312.027 862.881 312.027 862.881 312.04C862.868 312.04 862.855 312.052 862.842 312.052C862.42 312.193 861.997 312.334 861.574 312.475C859.538 311.796 857.374 311.322 855.095 311.066C845.874 310.016 836.654 308.966 827.434 307.916C824.22 307.545 821.146 308.223 818.342 309.568C816.997 309.376 815.665 309.184 814.321 308.979C813.578 308.877 812.835 308.787 812.08 308.736C808.008 308.147 803.91 307.724 799.799 307.455C794.83 306.751 789.836 306.213 784.842 305.854C784.022 305.803 783.216 305.816 782.422 305.867C779.502 305.329 776.595 304.791 773.675 304.254C769.283 303.447 764.634 303.729 760.408 305.073C756.49 304.446 752.558 303.857 748.627 303.306C747.679 303.178 746.719 303.101 745.758 303.05C740.15 302.115 734.553 301.18 728.944 300.258C726.063 299.784 723.079 299.733 720.172 300.117C718.7 299.9 717.214 299.682 715.742 299.477C710.875 298.427 705.996 297.415 701.092 296.481C694.855 294.688 688.568 293.279 682.229 292.127C672.586 289.386 662.649 287.901 652.596 287.324C651.469 287.26 650.368 287.324 649.279 287.465C648.588 287.183 647.871 286.902 647.141 286.671C628.534 280.96 608.07 280.012 588.746 278.476C569.537 276.939 550.265 276.106 530.992 275.978C499.016 275.761 467.18 277.694 435.448 281.254C433.463 280.653 431.375 280.32 429.198 280.294C424.844 280.243 420.593 280.857 416.521 282.087L402.972 284.084C399.156 284.648 395.788 286.684 393.112 289.527C348.125 295.763 303.599 304.151 261.263 320.709C260.635 320.863 259.995 321.042 259.368 321.273C240.633 328.149 223.626 337.6 208.26 349.958C202.83 353.479 197.477 357.155 192.214 360.996C188.884 361.982 185.76 363.788 183.122 366.49C181.214 368.462 179.293 370.421 177.385 372.393C177.244 372.534 177.116 372.701 176.975 372.854C173.492 376.325 169.906 379.68 166.141 382.869C164.95 383.88 163.734 384.866 162.517 385.852C162.095 386.16 160.622 387.299 160.071 387.696C159.008 388.465 157.92 389.208 156.844 389.95C154.501 391.513 152.17 393.062 149.827 394.624C147.342 396.276 145.178 398.389 143.411 400.797C133.87 407.712 124.228 414.486 114.444 421.068C112.28 422.528 110.359 424.347 108.72 426.396C97.297 433.669 86.1175 441.302 75.1685 449.267C59.8784 458.18 44.7291 467.323 29.7079 476.697C23.7147 480.193 17.8369 483.894 12.0998 487.825C12.0998 487.825 12.087 487.825 12.087 487.838C7.77148 489.913 3.6352 492.333 -0.257775 495.265C-1.16698 495.957 -2.05059 496.7 -2.89577 497.494C-4.58614 498.518 -6.09723 499.747 -7.40342 501.143C-16.931 505.574 -20.0556 518.418 -16.9566 527.664C-16.4443 529.444 -15.7144 531.173 -14.6771 532.786C-14.5107 533.043 -14.3186 533.286 -14.1521 533.529C-15.2662 538.434 -14.7412 543.646 -11.9495 548.333C-13.6142 552.968 -15.2662 557.617 -16.931 562.253C-19.7995 570.282 -16.9566 577.876 -11.5781 583.216C-12.0904 586.801 -12.0647 590.323 -11.4245 593.589C-12.3977 596.086 -13.3837 598.583 -14.3314 601.08C-16.931 607.969 -14.5363 615.525 -9.91337 621.031C-9.22185 623.541 -8.10774 625.974 -6.67349 628.139C-8.78645 631.571 -10.8738 635.015 -12.9483 638.486C-14.2545 640.676 -15.1125 642.904 -15.612 645.119C-19.4665 649.422 -23.2186 653.827 -26.8811 658.348C-27.15 658.655 -27.4189 658.949 -27.675 659.257C-27.6622 659.27 -27.6494 659.282 -27.6238 659.295C-28.8148 660.781 -30.0057 662.279 -31.171 663.79C-33.8731 667.286 -34.7439 671.614 -34.3341 675.93C-36.8568 685.227 -32.1315 696.829 -23.8077 701.234C-13.7679 706.536 -4.15074 704.231 3.187 697.29C7.66903 690.734 12.7914 684.753 18.157 678.952C18.3363 678.747 18.5028 678.542 18.682 678.337C23.0232 673.407 27.6077 668.695 32.3459 664.136C32.7941 663.675 33.2295 663.214 33.6777 662.766C34.9967 661.114 36.3541 659.487 37.7371 657.887C38.8512 655.966 39.6708 653.866 40.183 651.676C43.7046 648.346 47.2647 645.068 50.8503 641.815C52.515 640.906 54.1286 639.805 55.6397 638.486L70.9042 625.206C72.1976 623.759 73.5678 622.363 75.0277 621.083C76.1674 619.866 77.3455 618.688 78.5621 617.523C80.6622 615.013 82.9417 612.72 85.2852 610.467C90.305 605.127 95.5426 599.979 101.305 595.433C101.6 595.202 101.92 595.023 102.253 594.895C102.56 594.075 102.842 593.256 103.047 592.398C117.876 580.386 132.014 567.58 145.447 554.031C152.4 547.782 159.38 541.546 166.372 535.335C168.651 533.67 170.931 532.005 173.21 530.341C174.17 529.636 175.092 528.881 175.963 528.061C176.296 527.805 176.616 527.549 176.949 527.293C176.949 527.306 176.962 527.306 176.962 527.318C177.077 527.216 177.18 527.126 177.295 527.024C183.211 522.35 188.987 517.548 194.596 512.553C204.328 504.883 214.304 497.852 225.573 490.706C227.455 490.181 229.287 489.349 231.015 488.158C237.188 483.868 243.565 479.924 250.224 476.441C253.221 474.878 256.256 473.406 259.342 472.023C260.328 471.575 261.57 471.05 261.98 470.87C263.222 470.345 264.464 469.833 265.706 469.308C271.674 465.274 278.231 461.983 284.966 459.332C287.899 457.36 290.678 455.196 293.239 452.75C293.265 452.737 293.29 452.724 293.316 452.724C296.146 451.546 300.538 449.766 305.033 447.961C309.72 448.537 314.753 447.653 319.76 445.528C316.955 446.718 320.771 445.118 322.359 444.452C322.462 444.413 322.539 444.388 322.654 444.349C324.754 443.568 326.841 442.8 328.954 442.083C331.08 441.378 333.219 440.725 335.37 440.111C338.175 439.099 340.979 438.139 343.835 437.293C349.098 435.744 354.579 434.873 360.034 434.425C365.502 433.964 371.022 434.028 376.49 434.566C380.37 434.95 384.173 435.449 387.708 436.871C387.836 436.884 387.976 436.896 388.105 436.909C388.156 436.986 388.194 437.05 388.245 437.114C389.257 437.55 390.243 438.049 391.204 438.676C392.318 439.394 392.548 440.533 392.279 441.532C392.753 441.903 393.252 442.249 393.777 442.582C394.482 442.633 395.186 442.685 395.89 442.8C397.376 443.043 398.81 444.119 399.963 445.028C400.424 445.387 400.859 445.796 401.282 446.245C427.06 458.052 453.965 466.811 481.971 471.575C481.971 471.562 481.971 471.549 481.971 471.536C483.931 471.844 485.915 472.125 487.926 472.369C490.833 472.727 493.625 472.215 496.211 471.114C503.421 472.804 511.591 472.906 518.839 473.79C527.009 474.776 535.192 475.762 543.362 476.748C547.012 477.184 550.495 476.274 553.594 474.52C560.33 475.506 567.156 476.594 574.288 477.606C574.417 477.67 574.545 477.747 574.685 477.811C578.694 479.706 583.201 480.641 587.581 480.449C588.016 480.615 588.464 480.782 588.913 480.948C588.58 481.461 588.375 482.075 588.311 482.741C588.26 483.292 588.247 483.843 588.208 484.406C587.991 484.841 587.824 485.315 587.722 485.827C587.491 486.135 587.325 486.468 587.248 486.865C586.236 492.064 587.453 497.545 590.706 501.655C591.551 504.742 592.908 507.674 595.533 509.582C597.083 512.156 598.799 514.641 600.707 516.997C601.45 517.906 602.743 518.098 603.857 517.765C603.23 518.969 603.447 520.582 604.408 521.543C605.74 522.875 607.584 522.619 608.941 521.543C610.811 520.057 612.475 518.354 613.948 516.472C619.045 510.786 623.245 504.306 626.28 497.289C626.972 495.701 626.754 493.857 625.128 492.909C624.142 492.333 622.771 492.371 621.772 492.986C621.811 492.832 621.862 492.666 621.901 492.512C621.977 492.179 622.003 491.885 622.003 491.59C622.221 491.564 622.438 491.552 622.656 491.513C625.486 492.73 628.278 494.036 631.044 495.393C632.427 495.624 633.848 496.187 634.975 496.636C637.434 497.596 639.624 498.864 641.622 500.593C641.903 500.836 642.172 501.092 642.454 501.348C645.515 502.59 648.447 502.373 650.931 501.207C651.892 501.976 652.852 502.731 653.813 503.499C653.966 503.832 654.12 504.165 654.312 504.498C655.401 506.97 657.142 509.032 659.153 510.799C659.165 510.824 659.191 510.85 659.204 510.876C659.793 510.94 660.369 511.17 660.805 511.593C660.907 511.695 661.01 511.785 661.125 511.887C661.317 512.015 661.509 512.143 661.714 512.259C662.162 512.515 662.623 512.733 663.084 512.963C663.519 513.181 663.942 513.398 664.339 513.655C664.621 513.834 664.864 514.051 665.133 514.256C665.248 514.333 665.428 514.448 665.492 514.5C666.119 514.935 666.606 515.371 667.067 515.96C667.412 516.408 667.771 516.856 668.117 517.304C668.322 517.56 668.527 517.816 668.719 518.073C669.385 518.188 670.089 518.265 670.832 518.265C674.404 518.265 677.094 516.92 678.951 514.884C679.258 513.168 679.488 511.439 679.514 509.659C679.527 508.724 679.783 507.943 680.193 507.316C680.282 506.855 680.372 506.394 680.462 505.92C680.692 504.844 680.91 503.768 681.307 502.731C681.537 502.142 681.806 501.617 682.139 501.169C681.422 498.556 680.334 496.021 679.015 493.677C678.733 492.589 678.413 491.526 678.028 490.476C677.964 489.759 677.824 489.029 677.593 488.312C675.122 480.551 670.972 473.559 665.082 467.887C664.544 467.374 663.955 466.913 663.327 466.503C651.981 453.608 634.335 444.977 618.597 439.522C619.634 439.483 620.53 438.945 621.119 438.177C622.592 439.573 624.18 440.853 625.922 441.968C627.266 442.826 628.7 442.429 629.661 441.506C629.904 441.468 630.135 441.417 630.365 441.34C631.992 442.736 635.091 442.07 635.577 439.765C635.603 439.624 635.641 439.496 635.68 439.355C636.448 439.201 637.165 438.74 637.665 437.857C639.048 435.411 639.713 432.734 639.701 430.02L640.635 426.139C640.84 425.269 640.699 424.475 640.315 423.834C640.469 421.939 640.559 420.044 640.597 418.149C641.25 417.624 641.673 416.83 641.57 415.767C641.506 415.075 641.455 414.384 641.391 413.705C641.839 413.039 642.07 412.181 641.89 411.182C641.865 411.041 641.839 410.913 641.826 410.773C641.506 409.594 641.148 408.429 640.738 407.264C639.765 404.485 638.561 401.808 637.165 399.234C637.037 399.234 636.896 399.247 636.768 399.26C635.782 397.429 634.745 395.623 633.605 393.882C632.824 392.691 631.582 392.281 630.442 392.435C628.764 389.566 627.048 386.723 625.204 383.944C624.795 383.33 624.257 382.933 623.668 382.715C622.874 381.46 622.054 380.205 621.209 378.976C621.619 379.052 622.054 379.117 622.477 379.104C622.592 379.104 622.707 379.091 622.81 379.078C623.181 379.027 623.552 379.001 623.924 378.912C623.949 378.912 623.975 378.886 624.001 378.886C624.513 379.437 625.256 379.795 626.229 379.795C626.844 379.795 627.343 379.642 627.778 379.398C627.958 379.578 628.163 379.731 628.367 379.872C628.419 380.167 628.483 380.448 628.572 380.73C628.957 380.82 629.341 380.999 629.674 381.306C630.929 382.459 632.107 383.688 633.259 384.943C634.437 385.788 635.705 386.531 636.935 387.235C639.777 388.862 642.697 390.386 645.246 392.486C647.807 394.586 649.651 397.198 651.943 399.529C654.248 401.872 656.374 404.357 658.436 406.931C662.162 411.579 666.093 416.087 669.961 420.62C670.422 420.953 670.806 421.376 671.062 421.888C671.075 421.914 671.088 421.939 671.101 421.965C671.562 422.515 672.035 423.066 672.496 423.617C680.129 432.683 688.196 441.609 694.753 451.521C704.69 459.678 717.061 464.122 730.084 463.661C731.237 463.622 732.287 463.43 733.26 463.136C734.451 463.93 735.86 464.493 737.486 464.762C739.714 463.75 742.352 463.468 744.683 462.995C745.989 462.739 747.206 462.444 748.435 461.919C749.639 461.42 750.65 460.638 751.726 459.908C753.045 459.012 754.441 458.244 755.862 457.527C756.49 455.619 756.669 453.531 756.387 451.533C756.08 451.098 755.734 450.688 755.376 450.253C754.518 449.177 753.775 448.037 753.019 446.885C752.097 445.489 751.124 444.157 750.112 442.838C749.255 442.467 748.307 442.185 747.27 442.032C746.975 441.903 746.693 441.763 746.386 441.66C734.361 425.538 722.324 409.402 710.299 393.28C709.3 391.948 708.122 390.821 706.816 389.912C706.957 389.361 706.944 388.798 706.79 388.247C706.265 387.504 705.766 386.736 705.305 385.942C703.807 384.162 702.296 382.369 700.797 380.589C699.094 376.696 696.354 373.533 692.973 370.985C692.576 370.69 692.166 370.524 691.769 370.46C691.449 370.216 691.09 370.037 690.668 369.96C690.617 369.948 690.553 369.948 690.501 369.935C692.845 369.807 695.201 369.704 697.557 369.627C696.315 371.497 697.148 374.724 700.08 374.724C700.144 374.724 700.183 374.711 700.247 374.711C700.439 375.672 701.117 376.453 702.014 376.965C702.027 377.913 702.5 378.848 703.602 379.437C704.14 379.731 704.703 380 705.241 380.269C706.099 379.808 707.213 379.821 708.186 380.679C711.234 383.394 714.307 386.096 717.291 388.875C718.764 390.053 720.249 391.231 721.722 392.409C724.219 393.894 726.96 394.97 729.354 396.737C729.585 396.904 729.802 397.083 730.02 397.262C730.814 397.429 731.621 397.506 732.44 397.403C732.428 398.044 732.479 398.684 732.556 399.311C734.387 400.861 736.167 402.474 738.024 404.011C739.586 405.304 741.238 406.457 742.954 407.533C744.721 408.634 746.642 409.556 748.268 410.875C754.415 415.895 760.421 421.158 767.106 425.448C773.726 429.712 780.77 433.106 788.415 435.078C793.076 436.282 797.84 436.986 802.616 437.178C806.394 436.499 809.98 435.001 812.695 432.542C813.962 432.299 815.179 431.864 816.319 431.198C817.049 430.711 817.778 430.225 818.508 429.738C818.918 429.52 819.302 429.251 819.661 428.982C820.237 429.059 820.826 429.123 821.467 429.123C823.759 429.123 825.693 428.56 827.268 427.625C827.076 426.908 827.063 426.088 827.383 425.179C828.791 421.017 830.367 416.907 831.775 412.745C832.364 411.003 833.645 410.068 835.053 409.774C834.631 409.274 834.042 408.864 833.453 408.724C832.953 408.608 832.428 408.596 831.929 408.698C830.597 407.878 828.945 407.392 827.613 406.841C822.926 404.92 818.24 402.987 813.553 401.066C812.695 399.158 811.209 397.429 808.943 396.084C800.862 391.295 793.383 385.852 786.417 379.539C784.266 377.593 781.564 376.479 778.836 376.299C777.082 374.558 775.327 372.829 773.573 371.087C772.471 368.808 770.627 366.938 768.053 365.927C767.541 365.261 766.747 364.774 765.672 364.71C754.851 364.057 744.03 363.545 733.196 363.16C732.671 362.815 732.043 362.597 731.365 362.52C719.135 361.188 706.816 361.086 694.586 362.2C694.049 361.777 693.383 361.521 692.627 361.483C684.444 361.022 676.248 360.907 668.053 361.137C677.35 360.612 686.672 360.343 696.033 360.318C747.18 360.19 798.224 365.376 849.383 363.621C849.562 363.506 849.716 363.391 849.921 363.289C853.084 361.726 856.298 360.279 859.577 358.973C860.332 357.91 860.921 356.732 861.293 355.49C869.015 353.287 875.533 345.745 877.133 337.946C877.313 337.51 877.53 337.216 877.723 336.934ZM-6.49421 635.297C-6.54543 635.348 -6.58385 635.4 -6.63508 635.438C-7.04486 634.695 -6.6863 634.004 -5.86672 633.351C-6.13565 634.055 -6.41737 634.823 -6.49421 635.297ZM571.548 382.472C571.074 382.369 570.575 382.369 570.101 382.523C569.256 382.779 568.411 383.022 567.565 383.266C567.015 383.381 566.451 383.458 565.875 383.509C565.209 383.522 564.556 383.535 563.89 383.535C563.071 383.547 562.417 383.803 561.931 384.2C561.175 384.572 560.42 384.943 559.664 385.315C556.36 386.941 558.691 392.102 562.136 391.167C562.622 391.039 563.109 390.898 563.596 390.77C563.916 391 564.261 391.18 564.607 391.295C564.851 392.307 565.555 393.241 566.746 393.677C567.553 393.971 568.334 394.291 569.115 394.637C569.269 394.983 569.486 395.316 569.781 395.598C569.986 395.803 570.203 396.007 570.408 396.212C570.524 396.75 570.78 397.275 571.266 397.775C578.169 404.741 584.431 412.284 590.014 420.326C589.169 420.428 588.336 420.71 587.568 421.132C585.839 422.093 585.481 424.744 586.825 426.127C584.738 425.589 582.599 425.486 580.602 425.909C579.693 423.732 578.156 421.862 575.953 420.838C559.715 413.206 542.965 406.687 526.382 399.849C526.19 399.772 525.998 399.734 525.806 399.67C524.627 398.722 523.27 397.967 521.785 397.429C520.094 396.827 518.404 396.225 516.713 395.61C524.346 394.189 531.978 392.768 539.61 391.333C541.121 391.052 542.402 390.514 543.49 389.822C544.745 389.848 546.064 389.63 547.435 389.054L564.3 381.972C580.422 375.723 596.916 371.113 613.679 367.758C599.734 372.906 585.686 377.81 571.548 382.472ZM612.847 437.575C612.386 437.434 611.938 437.332 611.502 437.255C608.339 435.693 605.163 434.182 601.975 432.683C602.269 432.35 602.5 431.979 602.666 431.569C603.178 431.851 603.678 432.133 604.177 432.389C607.814 434.297 611.451 436.218 615.088 438.126C615.357 438.279 615.638 438.42 615.907 438.561C614.87 438.215 613.858 437.882 612.847 437.575ZM618.635 374.865C618.635 374.967 618.661 375.083 618.673 375.185C618.648 375.377 618.622 375.569 618.597 375.761C618.597 376.043 618.635 376.312 618.699 376.581C618.161 376.402 617.572 376.376 616.983 376.543C616.804 376.389 616.612 376.261 616.42 376.158C616.074 375.198 615.344 374.545 614.46 374.276C615.485 373.905 616.509 373.533 617.521 373.162C617.79 373.187 618.072 373.187 618.353 373.162C618.494 373.239 618.648 373.303 618.801 373.354C618.699 373.572 618.635 373.789 618.635 374.033C618.558 374.302 618.558 374.583 618.635 374.865Z" fill="white"/>
<path d="M883.933 309.991C883.792 308.864 882.486 307.929 881.398 307.916C815.537 307.622 750.176 301.167 685.264 290.244C652.967 284.814 620.722 278.898 588.196 275.056C556.066 271.253 523.821 269.87 491.499 271.804C459.382 273.712 427.47 278.309 395.814 284.02C364.388 289.693 332.95 295.943 301.832 303.114C272.916 309.786 245.473 319.326 220.617 335.82C195.992 352.16 173.927 372.112 150.556 390.142C101.753 427.843 50.0563 461.765 -3.92025 491.59C-10.6689 495.317 -17.4432 498.966 -24.2431 502.565C-27.3165 504.191 -24.7553 508.968 -21.6691 507.328C32.0513 478.925 83.6204 446.552 132.526 410.491C156.69 392.678 179.562 373.303 203.304 354.939C214.957 345.937 227.033 337.408 240.005 330.39C253.272 323.206 267.41 317.93 281.893 313.768C311.718 305.201 342.631 299.759 373.07 293.791C405.047 287.516 437.215 281.984 469.665 278.873C501.82 275.786 534.065 275.415 566.259 278.194C598.94 281.011 631.287 286.466 663.596 291.973C695.393 297.403 727.19 302.691 759.269 306.264C791.539 309.875 823.976 312.091 856.426 312.923C863.918 313.115 871.396 313.218 878.888 313.269C880.617 335.718 862.304 358.986 839.702 360.446C815.678 361.048 792.41 359.05 770.743 358.371C748.96 357.68 727.19 357.091 705.407 356.719C684.662 356.361 663.763 355.669 643.056 357.488C632.811 358.384 622.605 359.921 612.655 362.584C602.769 365.235 593.279 369.115 583.854 373.047C574.468 376.965 565.081 380.845 555.297 383.701C545.488 386.557 535.448 388.554 525.306 389.669C524.615 389.745 523.91 389.809 523.219 389.873C522.95 389.784 522.668 389.733 522.386 389.758C521.925 389.809 521.464 389.848 521.016 389.899C520.978 389.899 520.939 389.886 520.914 389.899C520.658 389.925 520.414 389.963 520.158 389.989C519.083 390.091 517.994 390.206 516.918 390.309C514.933 390.501 512.718 390.45 510.938 391.449C510.797 391.525 510.656 391.628 510.541 391.73C510.311 391.769 510.08 391.794 509.837 391.846C508.518 392.076 507.647 393.766 508.044 394.996C508.146 395.29 508.274 395.546 508.441 395.777C508.646 396.264 508.992 396.699 509.478 397.045C512.948 399.478 516.662 401.565 520.542 403.268C521.003 403.473 521.426 403.601 521.887 403.601C551.481 414.998 581.063 426.383 610.657 437.78L611.118 437.959C633.541 446.59 659.101 456.438 671.933 478.17C678.553 489.375 680.961 505.139 672.957 516.203C651.354 499.543 626.523 487.095 600.182 479.937C571.548 472.164 541.787 471.626 512.308 470.627C492.831 470.051 475.748 468.616 457 463.2C446.281 460.101 435.806 456.208 425.626 451.61C415.868 447.192 406.34 442.262 396.287 438.548C386.209 434.822 375.683 432.619 364.913 432.658C353.811 432.683 342.785 434.707 332.13 437.793C311.001 443.888 290.652 453.403 271.111 463.392C231.31 483.753 195.249 509.877 161.134 538.639C127.724 566.799 94.9535 595.97 63.6177 626.41C32.9861 656.171 3.91692 687.711 -21.2849 722.261C-24.4352 726.564 -27.5086 730.931 -30.5308 735.323C-32.5157 738.205 -27.9184 741.073 -25.9463 738.205C-1.82009 703.053 26.4552 671.025 56.5873 640.932C86.9883 610.569 119.157 581.961 151.645 553.865C185.158 524.898 220.002 497.634 258.817 476.082C278 465.428 297.926 455.747 318.466 448.037C338.93 440.354 361.392 434.924 383.136 440.162C393.47 442.659 403.19 447.051 412.756 451.559C422.527 456.156 432.297 460.651 442.491 464.25C463.172 471.562 482.279 474.341 504.164 475.685C509.491 476.018 514.844 476.134 520.184 476.108C521.311 476.108 522.514 476.262 525.152 476.351C542.325 476.953 559.498 477.773 576.491 480.436C579.564 480.923 582.305 481.41 585.34 482.037C585.148 482.613 584.968 483.19 584.866 483.855C583.291 493.409 585.891 503.564 591.423 511.452C595.879 517.816 610.234 531.967 616.368 520.224C619.531 514.154 626.088 502.846 629.392 496.226C638.202 500.247 646.744 504.895 654.927 510.133C660.792 513.885 666.439 517.957 671.907 522.26C672.765 522.939 674.481 522.785 675.198 521.953C683.766 512.118 685.072 498.505 681.345 486.314C677.555 473.918 668.885 463.75 658.756 455.939C652.57 451.175 645.783 447.269 638.766 443.837C639.79 442.557 640.635 441.225 641.25 439.701C641.801 438.356 642.377 436.948 642.582 436.295C644.17 430.942 645.399 427.497 645.758 421.888C646.103 416.305 644.849 411.029 642.672 405.919C639.995 399.657 636.627 393.638 632.862 387.876C646.757 397.672 658.833 409.966 669.679 423.066C683.868 440.213 697.058 463.11 720.813 467.528C731.416 469.5 742.326 467.848 751.739 462.867C751.982 462.815 752.225 462.739 752.456 462.611C755.12 461.189 757.604 459.499 759.96 457.591C760.127 457.45 760.267 457.245 760.383 457.027C761.663 456.208 762.406 454.351 761.125 452.827C744.337 432.658 728.189 411.951 712.732 390.744C710.875 388.196 709.044 385.648 707.213 383.099C722.324 395.457 737.755 407.405 753.506 418.917C763.213 426.011 773.278 433.106 784.765 436.986C794.92 440.431 805.549 440.751 815.563 436.653C822.555 433.785 828.612 428.752 832.044 422.208C832.236 422.042 832.403 421.85 832.544 421.632C834.759 418.021 836.565 414.153 837.948 410.145C838.178 409.479 838.024 408.724 837.64 408.122C837.423 407.392 836.898 406.739 835.976 406.419C817.381 399.9 799.94 389.95 784.932 377.196C781.179 374.007 777.581 370.626 774.123 367.117C773.317 366.016 772.484 364.953 771.601 363.903C790.182 364.492 808.776 365.145 827.357 365.824C830.098 365.927 833.709 365.978 839.305 365.619C866.325 363.839 887.506 336.832 883.933 309.991ZM613.615 513.488C613.026 514.705 612.463 515.934 611.848 517.151C611.489 517.855 611.016 519.071 610.158 519.34C608.608 519.827 606.188 518.009 604.958 517.24C598.082 512.886 593.075 505.779 590.962 497.942C589.719 493.383 589.591 488.67 590.065 483.958C590.116 483.394 590.373 483.663 590.347 482.985C602.013 485.635 613.385 489.336 624.346 493.985L613.615 513.488ZM577.029 419.058C560.087 412.54 543.157 406.022 526.228 399.503C526.113 399.414 526.01 399.324 525.882 399.26C523.974 398.21 522.002 397.314 519.979 396.507C519.39 396.276 518.801 396.071 518.212 395.867C519.018 395.777 519.825 395.687 520.645 395.623C520.888 395.61 521.119 395.546 521.349 395.47C530.288 394.714 539.175 393.331 547.908 391.269C550.316 390.706 551.468 390.334 553.825 389.656C553.838 389.745 553.927 389.707 554.721 390.13C567.348 397.019 577.951 409.108 584.546 421.939C582.036 420.979 579.539 420.018 577.029 419.058ZM637.485 407.584C639.509 412.092 640.623 416.753 640.315 421.696C640.098 425.128 639.547 428.534 638.651 431.838C637.139 437.537 635.923 439.022 635.295 439.791L635.231 439.867C634.822 440.354 634.681 440.597 634.079 441.609C630.557 440.008 626.984 438.484 623.424 437.037C613.295 432.914 603.076 429.008 592.844 425.115C592.332 423.873 591.794 422.644 591.243 421.414C591.384 420.864 591.346 420.249 591.013 419.609C584.379 406.303 573.84 395.047 561.009 387.556C566.413 385.814 571.74 383.842 577.016 381.703C585.186 378.425 593.203 374.865 601.437 371.856C601.654 372.009 601.898 372.137 602.18 372.227C606.393 373.52 610.388 375.019 614.319 376.76C614.486 376.94 614.665 377.106 614.896 377.208C616.522 377.99 618.097 378.822 619.672 379.68C619.724 379.731 619.762 379.795 619.826 379.846C620.722 380.628 621.58 381.434 622.413 382.267C622.438 382.305 622.451 382.344 622.477 382.382C628.303 390.206 633.528 398.684 637.485 407.584ZM742.903 439.086C747.052 444.26 751.252 449.395 755.491 454.504C754.953 454.594 754.428 454.812 753.967 455.17C745.4 461.522 734.259 464.006 723.771 462.572C712.963 461.099 703.819 454.748 696.354 447.103C688.427 438.971 681.96 429.546 674.776 420.761C667.323 411.643 659.332 402.923 650.547 395.06C641.314 386.8 631.21 379.488 620.159 373.853C620.146 373.841 620.133 373.828 620.12 373.828C620.082 373.802 620.044 373.789 619.992 373.777C619.25 373.405 618.52 373.008 617.777 372.65C617.495 372.509 617.201 372.419 616.906 372.355C614.383 371.228 611.835 370.204 609.248 369.256C617.764 366.669 626.511 364.902 635.347 363.775C651.712 361.688 668.27 361.649 684.764 361.867C688.03 366.452 691.474 370.908 695.06 375.249C695.086 375.288 695.086 375.326 695.111 375.352C710.35 397.096 726.281 418.366 742.903 439.086ZM818.124 404.907C822.504 406.969 826.973 408.839 831.519 410.529C831.199 410.606 830.93 410.76 830.674 410.952C830.93 411.4 831.032 411.938 830.866 412.412C830.661 413.026 830.431 413.615 830.174 414.217C830.136 414.384 830.085 414.537 830.008 414.691C829.304 416.113 828.548 417.508 827.716 418.866C825.155 424.334 820.173 428.56 814.654 431.159C806.074 435.18 796.636 435.027 787.698 432.248C776.761 428.842 767.17 422.183 757.988 415.511C747.859 408.147 737.87 400.592 728.01 392.87C717.586 384.7 707.315 376.338 697.186 367.796C696.815 367.335 696.456 366.874 696.085 366.413C695.867 366.144 695.662 365.875 695.457 365.606C695.355 365.466 695.252 365.337 695.137 365.197C695.124 365.171 695.111 365.171 695.099 365.158C695.099 365.145 695.086 365.145 695.086 365.133C694.292 364.095 693.536 363.032 692.768 361.995C694.177 362.021 695.585 362.046 696.994 362.059C718.777 362.379 740.559 362.93 762.342 363.583C762.969 363.609 763.61 363.622 764.237 363.647C764.352 364.018 764.532 364.377 764.814 364.672C764.942 364.812 765.07 364.953 765.198 365.081C765.607 365.798 766.107 366.464 766.619 367.105C766.939 367.514 767.298 367.899 767.682 368.257C768.566 369.359 769.526 370.409 770.538 371.395C770.73 371.574 770.948 371.715 771.191 371.83C784.791 385.455 800.721 396.725 818.124 404.907Z" fill="#131212"/>
</g>
<defs>
<clipPath id="clip0">
<rect width="926" height="739" fill="white"/>
</clipPath>
</defs>
</svg>
