<svg width="925" height="739" viewBox="0 0 925 739" fill="none" xmlns="http://www.w3.org/2000/svg">
<g clip-path="url(#clip0)">
<path d="M963.288 29.1461C956.257 31.7585 949.252 34.4477 942.26 37.1626C941.454 34.038 938.252 31.4256 934.859 32.0274C934.282 30.4523 933.104 29.0309 931.632 28.1473C932.054 27.9808 932.477 27.8015 932.899 27.6478C940.532 24.7665 937.228 12.3833 929.493 15.303C920.17 18.8246 911.373 23.2683 903.151 28.9028C902.217 29.5431 901.538 30.3115 901.077 31.1438C887.093 38.6096 872.853 45.5504 858.344 51.9533C856.82 52.6192 855.885 53.6181 855.399 54.7322C847.228 58.3946 839.506 62.8255 831.464 66.7953C821.617 71.6615 811.282 74.1586 800.577 76.3612C797.324 77.0271 795.941 79.4346 795.967 81.9574C789.141 83.8014 782.124 85.1972 775.542 87.3358C762.902 91.4593 750.327 96.4023 736.983 97.6573C733.615 97.9774 731.63 100.359 731.041 102.985C722.487 105.021 713.984 107.262 705.301 108.786C693.085 110.937 681.111 114.049 669.381 118.044C669.151 118.044 668.92 118.057 668.69 118.057C667.114 118.057 665.847 118.518 664.873 119.286C661.813 118.659 658.74 118.108 655.641 117.647C654.616 118.992 653.066 119.978 650.979 120.157C646.804 120.529 642.604 119.965 638.481 120.759C634.908 121.451 631.399 122.565 627.916 123.615C627.186 124.742 625.944 125.587 624.125 125.869C611.473 127.828 598.987 130.158 586.22 131.362C573.696 132.54 561.159 133.386 548.609 134.128C531.757 135.127 514.482 138.636 497.412 139.046C496.387 140.314 494.799 141.184 492.674 141.184C491.252 141.184 490.074 140.8 489.139 140.16C488.755 140.237 488.384 140.314 487.999 140.39C487.308 141.709 486.002 142.734 483.978 143.067C459.186 147.152 434.676 154.093 409.308 153.798C408.834 153.798 408.398 153.734 407.976 153.644C406.951 154.899 405.376 155.745 403.263 155.745C401.355 155.745 399.908 155.053 398.884 154.016C394.389 155.245 389.932 156.615 385.578 158.19C376.845 161.341 369.289 166.476 359.672 166.425C358.148 166.412 356.919 165.976 355.959 165.259C355.728 165.362 355.485 165.464 355.254 165.567C349.171 168.141 343.063 171.342 336.468 172.251C335.418 172.392 334.457 172.29 333.587 172.046C332.665 172.751 331.525 173.237 330.142 173.378C323.509 174.031 317.31 177.604 311.253 180.127C305.222 182.637 299.267 185.236 293.364 188.041C287.332 190.922 281.237 193.867 274.885 195.968C268.572 198.068 261.977 199.195 255.586 201C255.01 201.41 254.459 201.846 253.934 202.281C252.859 202.486 251.783 202.755 250.733 203.165C241.334 206.776 232.318 211.219 223.969 216.764C218.27 219.786 212.713 223.052 207.321 226.65C202.942 229.019 198.601 231.478 194.285 233.963C192.94 234.616 191.596 235.269 190.251 235.922C187.37 236.434 184.54 237.394 181.94 238.726C176.882 241.326 171.836 243.913 166.778 246.512C165.882 246.858 164.985 247.217 164.127 247.639C160.542 249.368 156.982 251.122 153.434 252.915C149.004 252.928 144.483 254.068 140.539 256.181C137.926 257.576 135.314 258.972 132.702 260.381C131.921 260.573 131.152 260.804 130.397 261.098C125.735 262.955 121.151 264.991 116.63 267.181C112.801 268.692 109.037 270.344 105.323 272.15C104.619 272.431 103.94 272.739 103.261 273.059C102.045 273.648 100.828 274.25 99.6114 274.839C96.5252 274.403 93.3878 274.698 90.4425 276.03C81.9778 279.833 73.526 283.649 65.0613 287.452C62.9612 288.4 61.0403 289.514 59.3115 290.769C58.8633 290.769 58.4151 290.756 57.9797 290.756C57.9669 290.756 57.9541 290.756 57.9285 290.756C57.9156 290.756 57.9157 290.756 57.9029 290.756C57.1474 290.641 56.3918 290.526 55.6362 290.385C49.2846 289.232 43.5475 292.908 41.87 299.131C41.5754 300.22 41.4986 301.334 41.601 302.448C42.8304 304.267 43.9701 306.149 45.0843 308.044C46.3776 310.247 47.799 312.373 48.9644 314.639C49.6943 316.048 50.4115 317.457 51.1414 318.878C51.2054 318.916 51.2695 318.968 51.3335 319.006C51.6152 319.224 51.8969 319.429 52.2043 319.621C56.1101 326.561 64.6003 331.761 72.6296 331.504C73.3723 332.58 74.2815 333.515 75.3188 334.296C78.8404 334.552 82.3492 334.936 85.8324 335.461C86.0501 335.5 86.2422 335.564 86.4471 335.615C135.711 321.695 182.747 301.206 231.511 285.762C240.424 282.932 249.401 280.345 258.416 278.027C250.554 280.307 242.768 282.906 235.123 285.839C234.418 286.108 233.855 286.556 233.471 287.12C221.472 289.783 209.767 293.638 198.536 298.632C197.922 298.901 197.384 299.311 196.987 299.797C186.781 303.46 176.626 307.25 166.522 311.169C165.51 311.566 164.908 312.27 164.627 313.064C162.488 314.806 161.297 317.162 160.939 319.659C159.799 321.849 158.659 324.039 157.519 326.216C154.971 327.215 152.743 329.097 151.283 331.607C146.583 339.739 141.115 347.204 134.866 354.222C133.111 356.194 132.228 358.307 131.985 360.369C128.104 363.634 124.224 366.9 120.344 370.152C119.243 371.087 117.821 372.048 116.797 373.239C116.285 373.303 115.785 373.469 115.35 373.725C114.825 374.033 114.389 374.622 114.146 375.211C114.812 375.147 115.478 375.224 116.118 375.467C115.516 377.196 115.567 379.117 116.669 380.602C119.524 384.444 123.02 387.568 126.99 389.809C126.99 389.822 126.99 389.848 126.99 389.861C127.029 389.873 127.067 389.873 127.106 389.873C128.399 390.591 129.744 391.231 131.127 391.756C132.151 392.883 133.649 393.638 135.634 393.651C137.939 393.664 140.257 393.677 142.562 393.702C144.701 393.651 146.276 392.755 147.313 391.474C149.298 391.743 151.36 391.717 153.396 391.449C157.891 389.809 162.206 387.696 166.279 385.122C172.95 380.909 178.636 375.531 183.643 369.461C188.702 363.327 192.812 356.489 197.141 349.842C198.28 348.088 199.83 346.628 201.174 345.04C202.481 343.491 203.71 341.89 204.798 340.174C206.092 338.151 207.296 336.076 208.576 334.04C208.461 333.413 208.32 332.798 208.115 332.196C208.922 332.03 209.665 331.722 210.369 331.325C210.536 331.095 210.676 330.851 210.843 330.621C212.584 328.213 214.877 326.357 216.785 324.18C217.835 322.604 218.885 321.042 219.935 319.467C221.945 315.907 224.033 312.398 226.12 308.889C226.786 307.775 227.849 307.417 228.797 307.596C229.232 307.161 229.68 306.738 230.116 306.303C230.986 305.406 231.153 304.382 230.871 303.473C231.575 302.717 231.972 301.769 231.87 300.783C231.921 300.771 231.972 300.771 232.037 300.745C233.509 300.271 234.137 299.119 234.162 297.94C234.329 298.606 234.585 299.247 234.943 299.836C234.021 301.961 233.381 304.202 233.138 306.572C232.254 308.723 231.358 310.887 230.474 313.039C230.282 313.935 230.039 314.819 229.77 315.689C229.795 316.253 229.949 316.803 230.256 317.277C229.296 318.545 228.502 319.979 227.964 321.542C221.42 340.571 214.877 359.588 208.32 378.617C208.051 378.809 207.833 379.027 207.59 379.245C206.643 379.706 205.836 380.256 205.131 380.871C204.568 382.433 204.043 384.008 203.595 385.609C203.223 386.928 202.865 388.247 202.378 389.528C202.173 390.066 201.968 390.552 201.815 391.064C202.148 393.062 202.954 394.996 204.145 396.622C205.72 396.865 207.283 397.186 208.82 397.634C210.062 397.992 211.265 398.441 212.572 398.543C213.903 398.658 215.146 398.569 216.477 398.415C218.846 398.146 221.446 397.621 223.866 397.903C225.339 397.147 226.504 396.187 227.401 395.06C228.412 395.047 229.475 394.906 230.589 394.599C243.126 391.077 253.563 383.074 260.555 372.278C263.782 360.843 268.751 349.881 273.258 338.919C273.527 338.253 273.809 337.587 274.091 336.921C274.091 336.896 274.104 336.87 274.104 336.845C274.193 336.281 274.437 335.769 274.77 335.308C277.075 329.814 279.456 324.333 281.582 318.763C282.76 315.689 284.028 312.68 285.514 309.735C286.986 306.815 287.947 303.767 289.752 300.988C291.545 298.222 293.863 295.879 296.078 293.458C297.039 292.408 298.025 291.32 298.883 290.154C299.587 288.605 300.343 287.081 301.188 285.596C301.406 285.211 301.713 284.917 302.059 284.712C302.046 284.417 302.033 284.123 301.995 283.841C302.161 283.649 302.302 283.444 302.417 283.214C302.891 283.316 303.429 283.303 304.005 283.111C304.94 282.817 305.529 282.24 305.849 281.562C305.875 281.562 305.901 281.562 305.939 281.562C305.965 281.562 305.99 281.549 306.029 281.549C305.414 282.42 305.004 283.495 304.876 284.763C304.441 289.258 303.083 293.484 301.803 297.697C301.585 298.004 301.393 298.337 301.278 298.76C300.714 300.771 300.279 302.794 299.895 304.843C299.767 304.868 299.638 304.907 299.498 304.932C298.947 307.814 298.614 310.733 298.537 313.666C298.524 314.268 298.55 314.857 298.55 315.446C297.59 316.47 297 317.905 297.09 319.774C297.308 324.192 298.307 328.393 300.356 332.324C302.264 335.987 305.414 338.599 307.693 341.954C309.653 344.823 312.79 345.322 315.377 344.426C316.67 344.643 318.117 344.093 318.796 342.978C319.039 342.991 319.27 342.979 319.513 342.927C320.704 343.516 322.19 343.465 323.214 342.236C324.533 340.648 325.66 338.945 326.633 337.165C327.427 337.715 328.452 337.959 329.45 337.677C316.12 347.678 301.943 361.265 295.067 377.004C294.593 377.58 294.17 378.195 293.812 378.848C289.932 386.032 288.113 393.971 288.113 402.116C288.113 402.884 288.203 403.614 288.357 404.318C288.318 405.433 288.318 406.559 288.395 407.674C287.844 410.312 287.588 413.052 287.691 415.754C288.139 416.087 288.561 416.497 288.958 416.996C289.65 417.854 290.188 418.815 290.738 419.775C290.969 420.185 291.199 420.607 291.417 421.017C291.993 421.491 292.48 422.157 292.775 423.041C293.338 424.718 294.081 426.293 294.9 427.843C297.282 429.213 300.266 429.674 303.659 428.585C304.377 428.355 305.004 428.073 305.619 427.766C305.734 427.459 305.849 427.151 305.965 426.844C306.157 426.306 306.362 425.781 306.554 425.243C306.823 424.539 307.143 423.975 307.604 423.373C307.655 423.309 307.783 423.143 307.873 423.041C308.065 422.772 308.231 422.477 308.449 422.221C308.756 421.85 309.089 421.517 309.435 421.184C309.806 420.825 310.178 420.479 310.523 420.095C310.677 419.929 310.818 419.737 310.972 419.557C311.048 419.429 311.112 419.314 311.189 419.186C311.471 418.661 311.945 418.251 312.496 418.021C312.508 417.995 312.508 417.957 312.521 417.931C313.891 415.639 314.929 413.142 315.21 410.452C315.287 410.081 315.338 409.722 315.377 409.351C316.056 408.327 316.734 407.315 317.413 406.29C320.128 406.636 322.983 405.958 325.519 403.832C325.698 403.499 325.878 403.166 326.082 402.859C327.466 400.605 329.169 398.722 331.205 397.057C332.152 396.289 333.318 395.316 334.573 394.676C336.801 392.537 339.055 390.45 341.385 388.426C341.603 388.401 341.808 388.337 342.026 388.298C342.115 388.58 342.231 388.862 342.41 389.144C342.499 389.284 342.589 389.425 342.679 389.566C341.539 389.297 340.233 389.669 339.465 390.514C338.21 391.91 338.568 393.741 339.708 395.034C344.741 400.784 350.708 405.689 357.29 409.543C359.262 410.875 361.375 411.989 363.604 412.847C365.23 413.462 367.048 413.154 367.919 411.464C368.547 410.247 368.265 408.647 367.304 407.699C368.47 407.674 369.648 407.097 370.071 406.009C371.172 403.179 372.055 400.297 372.747 397.365C374.668 394.74 375.065 391.551 374.937 388.35C376.781 383.445 376.256 377.849 373.72 373.2C373.528 372.854 373.259 372.586 372.952 372.368C372.696 371.907 372.401 371.51 372.055 371.164C371.863 370.639 371.684 370.127 371.454 369.615C371.197 369.013 370.813 368.488 370.327 368.104C370.698 367.809 371.069 367.514 371.441 367.22C375.667 366.067 379.688 363.814 382.915 360.779C383.017 360.676 383.12 360.574 383.222 360.471C389.522 357.423 395.516 354.401 401.458 351.494C402.405 349.663 404.198 348.254 406.823 348.139C411.049 347.947 415.429 344.835 419.181 343.068C423.932 340.827 428.67 338.625 433.613 336.806C436.097 335.897 438.121 336.55 439.491 337.946C444.921 335.679 450.683 333.464 455.613 330.506C458.405 330.775 461.235 330.403 463.886 329.187C465.73 328.341 467.536 327.471 469.303 326.574C469.303 326.587 469.316 326.6 469.316 326.6C478.254 321.964 486.911 316.893 495.299 311.425C495.209 308.787 496.541 306.111 499.755 305.112C507.964 302.563 514.303 294.47 520.18 288.567C527.108 281.613 534.997 275.569 541.361 268.077C543.09 266.041 545.203 265.631 547.085 266.195C547.418 265.875 547.739 265.554 548.084 265.26C548.11 265.183 548.135 265.106 548.161 265.017C548.289 264.965 548.404 264.914 548.533 264.863C551.465 262.43 554.935 260.804 558.508 259.254C559.187 258.959 559.879 258.691 560.57 258.422C560.749 256.168 562.158 254.196 565.193 253.786C569.252 253.235 573.517 250.008 577.269 248.407C581.61 246.551 586.079 245.027 590.408 243.144C598.424 239.635 606.133 235.666 614.393 232.733C632.641 226.253 651.683 222.424 670.764 219.274C671.353 219.172 671.904 219.159 672.442 219.197C672.954 218.775 673.543 218.416 674.222 218.122C679.242 216.009 684.479 215.33 689.768 214.856C698.002 211.975 706.467 209.926 715.021 208.402C721.014 206.776 727.033 205.201 733.103 203.907C740.287 202.383 747.663 201.948 754.809 200.398C761.596 198.926 767.986 196.749 775.004 196.467C775.964 196.429 776.809 196.57 777.539 196.851C778.359 196.339 779.332 196.006 780.472 195.891C780.638 195.878 780.792 195.852 780.958 195.84C786.554 193.317 792.535 191.806 798.554 190.448C808.171 188.284 817.749 186.03 827.239 183.328C829.326 182.726 831.106 183.149 832.438 184.135C837.534 183.047 842.631 181.996 847.702 180.78C846.089 180.255 844.462 179.743 842.849 179.23C872.571 173.429 902.345 167.244 932.31 162.877C938.291 162.007 937.958 154.758 934.103 151.672C934.129 151.672 934.154 151.659 934.18 151.659C941.313 150.174 939.456 140.339 933.348 139.263C937.445 137.394 941.543 135.524 945.628 133.616C948.548 132.259 949.291 129.659 948.689 127.239C949.278 123.371 946.166 119.171 940.878 119.978C938.278 120.375 935.691 120.785 933.091 121.182C932.682 119.76 931.849 118.492 930.658 117.686C931.427 117.34 932.208 116.994 932.976 116.648C935.448 115.547 936.395 113.652 936.306 111.692C936.728 111.526 937.151 111.372 937.573 111.206C943.912 108.798 943.592 98.4 935.87 98.6305C935.819 98.6305 935.755 98.6305 935.704 98.6305C939.891 96.2743 944.066 93.9308 948.254 91.5745C951.148 89.9482 951.814 86.9516 951.02 84.3648C951.609 84.0191 952.211 83.6605 952.8 83.3148C955.771 81.5604 956.449 78.8327 955.732 76.4637C956.757 75.9258 957.781 75.4008 958.793 74.8629C964.197 72.0456 961.943 62.2748 955.566 62.9279C954.977 62.9919 954.388 63.0688 953.799 63.1456C953.491 59.1502 949.009 55.3725 944.117 57.5623C939.968 59.4191 935.819 61.2759 931.67 63.1328C931.401 62.6846 931.068 62.2748 930.71 61.9034C931.171 61.5961 931.619 61.2759 932.08 60.9686C934.026 59.7136 934.923 57.7287 934.987 55.731C945.974 50.5831 957.051 45.6144 968.218 40.825C974.826 38.0206 970.088 26.6106 963.288 29.1461ZM234.034 296.724C233.829 296.084 233.471 295.507 232.946 295.085C233.343 294.969 233.753 294.867 234.15 294.752C234.021 295.418 233.983 296.071 234.034 296.724ZM404.915 273.635C404.16 274.634 403.007 275.389 401.368 275.697C400.023 275.953 398.704 276.299 397.385 276.683C397.808 278.949 396.988 281.357 394.273 282.778C389.548 285.199 386.219 289.386 382.134 292.677C380.482 294.009 378.433 294.713 376.473 294.432C375.897 295.43 375.449 296.455 375.282 297.454C374.488 302.269 369.84 303.012 366.459 301.142C365.307 303.242 364.282 305.419 363.501 307.724C360.838 315.484 348.48 312.129 351.156 304.318C355.382 291.947 364.795 282.881 370.557 271.356C372.478 267.501 376.333 267.411 379.124 269.255C385.681 268.346 391.533 264.556 397.962 263.339C398.602 263.224 399.204 263.198 399.78 263.237C400.804 261.815 402.444 260.829 404.736 260.829C412.919 260.829 412.97 273.43 404.915 273.635Z" fill="white"/>
<path fill-rule="evenodd" clip-rule="evenodd" d="M821.809 66.2318C863.3 48.4829 903.062 26.7002 939.814 0.473865C942.504 -1.44701 945.065 2.99661 942.414 4.89187C937.906 8.10614 933.36 11.2692 928.763 14.3554C891.28 39.5444 850.916 60.2002 809.041 77.0271C766.936 93.9564 723.319 106.954 679.088 116.981C634.754 127.021 589.767 134.077 544.588 139.071C536.066 140.011 527.545 140.911 519.029 141.811C476.599 146.292 434.282 150.762 392.506 160.073C344.433 170.791 293.825 188.681 247.916 207.096C247.729 207.171 247.541 207.225 247.355 207.26C247.379 207.295 247.403 207.33 247.429 207.365C246.156 208.034 244.938 208.665 243.726 209.293C242.341 210.01 240.963 210.723 239.515 211.488C211.009 226.561 182.465 241.492 153.127 254.9C123.61 268.397 93.5159 280.627 62.9484 291.537C55.8924 294.06 48.8236 296.48 41.7292 298.862C47.082 320.722 71.746 337.126 93.6568 331.466C109.289 326.757 124.217 321.019 138.57 315.502C145.334 312.902 151.971 310.351 158.493 307.98C178.956 300.527 199.446 293.177 220.025 286.031C222.25 285.257 224.476 284.478 226.703 283.698C244.075 277.62 261.536 271.51 279.469 267.322C289.471 264.978 299.639 263.249 309.922 262.673C320.128 262.11 330.36 262.84 340.527 263.634C350.67 264.44 360.786 265.196 370.967 264.85C381.173 264.504 391.328 263.275 401.304 261.175C401.777 261.077 402.257 260.966 402.734 260.856C402.941 260.808 403.147 260.76 403.353 260.714C403.571 260.535 403.827 260.406 404.108 260.342C404.556 260.253 405.004 260.151 405.451 260.048L405.453 260.048C405.492 260.035 405.517 260.022 405.556 260.009C405.736 259.972 405.923 259.934 406.107 259.896C406.171 259.882 406.235 259.869 406.298 259.856C406.757 259.755 407.219 259.652 407.681 259.548C408.277 259.415 408.876 259.281 409.474 259.152C409.855 259.066 410.241 258.969 410.632 258.871C412.234 258.469 413.899 258.051 415.506 258.37C415.659 258.396 415.813 258.447 415.967 258.511L416.658 258.396C417.977 258.204 419.335 259.536 419.335 260.829C419.347 261.136 419.283 261.418 419.207 261.687C419.155 262.212 418.963 262.737 418.605 263.211C416.056 266.604 413.201 269.742 410.038 272.572C409.666 272.905 409.295 273.174 408.859 273.315C387.605 290.688 366.361 308.042 345.11 325.402L335.226 333.477L334.842 333.784L334.808 333.811C316.222 349.005 295.051 366.313 289.65 390.949C286.858 403.665 289.483 419.391 300.548 427.407C315.851 404.843 335.546 385.276 358.328 370.255C381.558 354.94 407.719 345.382 433.712 335.886C435.43 335.258 437.148 334.63 438.863 334.002C457.176 327.381 472.965 320.684 489.062 309.696C498.282 303.408 507.016 296.442 515.237 288.899C517.857 286.499 520.171 284.271 522.42 282.106C526.218 278.45 529.833 274.969 534.433 271.125L544.076 263.672C547.595 260.965 550.18 259.366 551.963 258.263C552.289 258.062 552.588 257.877 552.861 257.704C572.103 245.596 586.67 240.532 606.643 233.589C609.04 232.755 611.515 231.895 614.086 230.992C639.147 222.194 664.925 215.701 690.857 210.105C706.397 206.753 722 203.718 737.603 200.682C749.54 198.36 761.478 196.037 773.39 193.573C789.082 190.323 804.696 186.712 820.311 183.102C831.647 180.48 842.983 177.859 854.348 175.376C881.241 169.498 908.376 164.478 935.845 162.211C939.136 161.942 939.11 167.065 935.845 167.334C932.413 167.615 928.981 167.936 925.549 168.307C898.349 171.201 871.508 176.708 844.847 182.726C837.557 184.371 830.276 186.043 822.996 187.714C803.406 192.212 783.824 196.709 764.106 200.667C755.691 202.356 747.266 203.994 738.84 205.633C719.978 209.3 701.114 212.969 682.366 217.2C656.998 222.924 631.822 229.711 607.439 238.816C585.055 247.178 567.613 253.786 543.73 270.408C543.737 270.414 542.623 271.301 541.509 272.188C540.395 273.075 539.28 273.961 539.287 273.968C535.455 276.94 533.748 278.64 531.405 280.975C530.326 282.049 529.111 283.259 527.493 284.789C519.655 292.216 511.767 299.528 503.226 306.123C485.874 319.518 468.599 328.124 448.224 336.23C443.269 338.202 438.223 339.995 433.139 341.621C432.595 341.796 432.045 342.017 431.314 342.31C430.599 342.596 429.712 342.952 428.491 343.401C412.368 349.33 396.322 355.477 381.007 363.301C378.241 364.723 375.795 366.042 373.106 367.578C373.464 368.065 373.823 368.564 374.13 369.166C378.612 377.746 379.316 388.209 376.525 397.429C374.271 404.856 365.051 422.784 355.574 413.539C353.514 411.532 350.599 408.834 347.526 405.989C343.284 402.062 338.74 397.856 335.725 394.804C328.605 401.373 321.959 408.455 315.812 415.984C311.407 421.376 307.309 427.01 303.467 432.811C302.866 433.721 301.188 434.105 300.24 433.541C289.048 426.869 283.554 414.358 283.285 401.603C283.017 388.657 288.075 376.286 295.246 365.709C299.626 359.242 304.85 353.415 310.447 347.973C309.076 347.076 307.86 346.065 306.797 344.822C305.849 343.721 304.863 342.569 304.479 342.005C304.072 341.416 303.68 340.855 303.302 340.314C300.731 336.631 298.795 333.857 296.975 329.302C294.9 324.09 294.465 318.699 294.926 313.167C295.515 306.379 296.834 299.605 298.614 292.959C288.485 306.597 280.84 322.041 274.629 337.882C273.172 341.598 271.802 345.481 270.414 349.418C264.067 367.418 257.32 386.552 239.951 396.071C230.5 401.258 219.615 403.102 209.127 401.296C208.884 401.322 208.628 401.335 208.371 401.283C205.388 400.771 202.493 399.926 199.676 398.863C199.471 398.786 199.279 398.633 199.1 398.453C197.627 398.082 196.347 396.545 197.077 394.701C206.719 370.306 215.594 345.591 223.649 320.619C224.379 318.373 225.087 316.126 225.795 313.879C226.031 313.129 226.267 312.379 226.504 311.63C216.004 328.085 205.08 344.246 193.722 360.1C186.717 369.871 179.379 379.744 169.672 387.018C161.092 393.446 151.104 397.07 140.321 396.302C132.791 395.764 125.466 392.87 120.165 387.722C119.934 387.62 119.717 387.504 119.512 387.325C116.272 384.585 113.352 381.473 110.791 378.105C110.356 377.541 110.279 376.773 110.445 376.081C110.42 375.326 110.714 374.545 111.495 373.943C127.118 361.957 140.577 347.064 150.848 330.262C153.422 326.062 155.791 321.734 157.968 317.316C158.39 316.022 158.851 314.742 159.363 313.474C141.909 319.826 124.455 326.241 107.026 332.683C104.465 333.63 101.046 334.821 95.616 336.217C69.4153 342.978 40.8712 323.923 35.8897 297.313C35.672 296.199 36.6197 294.905 37.6569 294.547C100.111 273.725 160.145 247.204 218.385 216.585C222.714 214.308 226.979 212.129 231.243 209.95C235.371 207.84 239.499 205.731 243.681 203.535C243.869 203.194 244.195 202.896 244.689 202.678C247.542 201.414 251.896 199.889 256.141 198.402C259.764 197.133 263.308 195.893 265.767 194.866C311.228 175.939 358.558 161.494 406.849 151.813C442.426 144.674 478.409 140.926 514.419 137.174C528.727 135.684 543.038 134.193 557.33 132.489C602.688 127.072 647.829 119.402 692.239 108.632C736.432 97.9134 779.972 84.1215 821.809 66.2318ZM373.938 270.146C373.84 270.234 373.663 270.394 373.349 270.728C363.514 281.216 357.201 296.007 354.947 310.298L354.954 310.293C357.039 308.604 359.124 306.915 361.196 305.214C367.523 300.045 373.848 294.876 380.171 289.708C387.9 283.392 395.626 277.077 403.353 270.766C403.366 270.747 403.379 270.728 403.391 270.708C403.456 270.609 403.524 270.506 403.609 270.421C405.094 268.833 406.695 267.36 408.36 265.964C408.748 265.629 409.153 265.319 409.562 265.006C409.652 264.937 409.742 264.868 409.833 264.799C409.039 264.965 408.245 265.132 407.451 265.324C407.22 265.375 406.977 265.401 406.734 265.401C398 267.475 389.126 268.935 380.187 269.691C378.192 269.857 377.015 269.897 375.329 269.954C374.936 269.967 374.517 269.981 374.053 269.998C374.053 270.042 374.032 270.061 373.938 270.146ZM188.151 358.307C195.476 348.139 202.609 337.831 209.562 327.419C216.926 316.394 224.071 305.24 231.012 293.971C231.115 293.695 231.217 293.416 231.32 293.137C231.422 292.859 231.524 292.581 231.627 292.306L231.973 291.345C232.005 291.262 232.033 291.182 232.062 291.102C232.091 291.022 232.12 290.942 232.152 290.859C232.152 290.833 232.152 290.833 232.165 290.807C232.171 290.801 232.174 290.798 232.176 290.794C232.177 290.791 232.177 290.788 232.177 290.782C232.455 289.998 232.712 289.204 232.967 288.413C233.113 287.963 233.258 287.514 233.407 287.068L229.411 288.451C208.807 295.558 188.292 302.871 167.802 310.298C167.507 310.407 167.208 310.516 166.91 310.626C166.613 310.734 166.316 310.843 166.023 310.951C166.035 311.335 165.984 311.719 165.805 312.104C165.736 312.231 165.676 312.365 165.616 312.495C165.598 312.536 165.58 312.576 165.561 312.616C165.395 313.423 165.126 314.204 164.844 314.985C164.665 315.484 164.447 315.958 164.204 316.419C163.705 317.751 163.128 319.044 162.462 320.299C162.347 320.543 162.181 320.748 161.989 320.927C153.319 338.099 141.704 353.799 127.72 367.002C124.199 370.332 120.536 373.508 116.758 376.53C117.091 376.504 117.399 376.568 117.693 376.658C117.578 377.157 117.655 377.695 117.962 378.105C118.346 378.617 118.756 379.116 119.179 379.603C119.268 379.744 119.371 379.885 119.486 380C120.6 381.127 121.753 382.228 122.957 383.253C127.106 387.645 133.15 390.117 139.207 390.859C148.619 391.999 157.532 388.913 165.152 383.483C174.487 376.837 181.518 367.502 188.151 358.307ZM268.866 337.318C273.092 326.318 277.958 315.536 283.849 305.329C290.047 294.585 297.372 284.494 306.054 275.709L306.093 275.671C306.131 275.645 306.157 275.607 306.195 275.581C306.416 275.36 306.634 275.137 306.851 274.915C307.213 274.544 307.574 274.174 307.949 273.814C308.18 273.596 308.423 273.417 308.692 273.264C310.741 271.407 312.841 269.627 315.005 267.923C306.118 268.116 297.257 269.178 288.51 270.856C272.311 273.968 256.56 279.103 240.962 284.469C239.285 289.847 237.402 295.161 235.353 300.399C235.353 300.422 235.353 300.445 235.35 300.468C235.349 300.484 235.346 300.499 235.34 300.514C227.644 325.947 219.167 351.136 209.844 376.017C207.526 382.228 205.131 388.426 202.698 394.599C203.236 394.522 203.813 394.56 204.363 394.752C214.493 398.12 225.838 396.993 235.366 392.358C245.175 387.568 251.886 378.694 256.585 369.09C259.929 362.257 262.469 355.08 265.008 347.905C266.262 344.362 267.516 340.819 268.866 337.318ZM301.892 327.445C303.16 330.646 304.748 333.72 306.643 336.576C309.858 341.519 311.484 342.556 312.303 343.055L312.393 343.107C312.92 343.433 313.14 343.624 313.98 344.354L314.032 344.4C316.888 341.775 319.795 339.226 322.727 336.729C331.064 329.648 339.567 322.745 348.07 315.856C348.173 314.524 348.288 313.179 348.429 311.848C348.134 311.374 347.98 310.772 348.083 310.067C350.234 295.354 356.74 281.37 366.587 270.241C360.914 270.267 355.229 270.062 349.556 269.665C346.501 269.469 343.449 269.234 340.399 268.999C334.69 268.559 328.987 268.12 323.278 267.936C323.112 268.141 322.919 268.346 322.689 268.513C319.091 271.061 315.761 273.725 312.572 276.606C312.47 276.836 312.342 277.041 312.163 277.221C310.869 278.475 309.627 279.756 308.398 281.062C308.392 281.076 308.387 281.091 308.381 281.106C308.36 281.159 308.338 281.217 308.308 281.267C307.706 282.279 307.143 283.329 306.605 284.379C306.598 284.405 306.595 284.427 306.592 284.449C306.589 284.472 306.586 284.494 306.579 284.52C303.48 293.753 301.162 303.447 300.176 313.141C299.664 318.058 300.061 322.835 301.892 327.445ZM364.901 407.742C365.049 407.556 365.185 407.385 365.307 407.238C370.467 400.95 373.016 392.639 372.581 384.533C372.35 379.821 370.993 375.3 369.072 370.972C368.966 370.732 368.877 370.674 368.793 370.619C368.693 370.554 368.6 370.494 368.495 370.14C358.251 376.312 348.595 383.368 339.631 391.218L355.92 406.393C356.291 406.774 356.661 407.162 357.031 407.551C357.593 408.141 358.158 408.734 358.737 409.313C358.819 409.393 358.907 409.482 358.999 409.577C359.544 410.136 360.263 410.873 361.03 410.862C362.441 410.84 363.93 408.965 364.901 407.742Z" fill="#131212"/>
</g>
<defs>
<clipPath id="clip0">
<rect width="926" height="739" fill="white"/>
</clipPath>
</defs>
</svg>
